<?xml version="1.0" encoding="utf-8"?>
<!-- Generator: Adobe Illustrator 24.0.0, SVG Export Plug-In . SVG Version: 6.00 Build 0)  -->
<svg version="1.1" id="Layer_1" xmlns="http://www.w3.org/2000/svg" xmlns:xlink="http://www.w3.org/1999/xlink" x="0px" y="0px"
	 viewBox="0 0 450.2 57.2" style="enable-background:new 0 0 450.2 57.2;" xml:space="preserve">
<style type="text/css">
	.st0{fill:#80A733;}
	.st1{fill:#27529C;}
	.st2{opacity:0.6;fill:url(#SVGID_1_);enable-background:new    ;}
	.st3{opacity:0.6;fill:url(#SVGID_2_);enable-background:new    ;}
	.st4{fill:#698B27;}
	.st5{fill:#BDD34E;}
</style>
<g id="logoentwürfe">
</g>
<g id="Ebene_5">
</g>
<g id="Ebene_4">
	<g>
		<path class="st0" d="M141.2,49.3V7.6h7.9l5.9,30.5l5.6-30.5h7.9v41.6h-5.6V33.7l0.2-14.2l-5.6,29.6h-5l-5.8-29.6v14.2v15.5H141.2z
			"/>
	</g>
	<g>
		<path class="st0" d="M172.8,49.3l5.9-41.6h8.4l6.3,41.6h-5.9l-1-7.5h-6.7l-1,7.5C179,49.3,172.8,49.3,172.8,49.3z M185.9,36.8
			L183,15.9l0,0l-2.5,20.9H185.9z"/>
	</g>
	<g>
		<path class="st0" d="M199.5,49.3V13.2h-4.8V7.6h15.9v5.6H206v36.3h-6.5V49.3z"/>
	</g>
	<g>
		<path class="st0" d="M214.1,49.3V7.6h14v5.6h-7.7v12.1h7.3v5.4h-7.3v13.2h7.9v5.6L214.1,49.3L214.1,49.3z"/>
	</g>
	<g>
		<path class="st0" d="M241.7,29.7h-2.1v19.8h-6.3V7.6h10.6c2.1,0,3.8,0.4,4.8,1.3c1.2,1,1.7,2.1,2.1,3.6c0.4,1.5,0.6,3.6,0.6,6.1
			c0,2.5-0.2,4.4-0.8,5.8c-0.6,1.3-1.5,2.3-3.1,2.7c1.3,0.2,2.5,1.2,3.1,2.9c0.6,1.7,0.8,5.2,0.8,10.6s0,8.3,0.2,8.6h-6.3
			c-0.2-0.4-0.2-5.4-0.2-15c0-1.9-0.2-3.1-0.6-3.6C244,30.1,243.1,29.7,241.7,29.7z M239.8,24.7h2.5c0.8,0,1.3-0.2,1.7-0.6
			s0.6-1,0.8-1.9c0.2-1,0.2-2.3,0.2-4V18c0-2.3-0.2-3.6-0.6-4.4c-0.4-0.8-1.3-1-2.7-1h-2.1L239.8,24.7L239.8,24.7z"/>
	</g>
	<g>
		<path class="st0" d="M257.7,49.3V7.6h6.3v41.6C264,49.3,257.7,49.3,257.7,49.3z"/>
	</g>
	<g>
		<path class="st0" d="M268.6,49.3l5.9-41.6h8.4l6.3,41.6h-6.1l-1-7.5h-6.7l-1,7.5C274.6,49.3,268.6,49.3,268.6,49.3z M281.7,36.8
			l-2.9-20.9l0,0l-2.5,20.9H281.7z"/>
	</g>
	<g>
		<path class="st0" d="M293.6,49.3V7.6h6.3v36.3h8.1v5.4L293.6,49.3L293.6,49.3z"/>
	</g>
	<g>
		<path class="st1" d="M313.5,49.3V6.8h9.6c3.1,0,5.4,1,6.7,2.7c1.3,1.9,2.1,4.6,2.1,8.1v19.2c0,4.2-0.8,7.5-2.1,9.4
			s-3.8,3.1-7.1,3.1H313.5L313.5,49.3z M319.8,44.3h2.1c1.2,0,2.1-0.4,2.7-1.2c0.6-0.8,0.8-2.1,0.8-4.2V18c0-2.1-0.2-3.8-0.8-4.8
			c-0.6-1-1.5-1.3-2.9-1.3h-1.9V44.3L319.8,44.3z"/>
		<path class="st1" d="M340.8,49.3V14.9c-0.6,0.6-1.3,1.2-2.3,1.5s-1.9,0.6-2.9,0.6v-4.8c1.3-0.2,2.7-0.8,3.8-1.7
			c1.2-1,2.1-2.1,2.9-3.6h5v42.4H340.8L340.8,49.3z"/>
		<path class="st1" d="M361.9,49.8c-2.7,0-4.8-1-6.3-3.1c-1.5-2.1-2.3-5.4-2.3-9.8V18.6c0-3.8,0.8-6.9,2.3-9c1.5-2.1,4-3.1,7.3-3.1
			c4.2,0,6.7,1.5,7.9,4.6c0.8,1.9,1,4.4,1,7.7v3.1h-5.9v-4.4c0-1.9-0.2-3.3-0.6-4s-1.2-1.2-2.3-1.2c-1.2,0-1.9,0.4-2.3,1.3
			c-0.4,1-0.8,2.7-0.8,5V37c0,2.7,0.2,4.8,0.6,5.8c0.4,1,1.2,1.7,2.5,1.7c1.2,0,2.1-0.6,2.5-1.7c0.6-1.2,0.8-3.1,0.8-5.9V31h-3.3
			v-4.6h8.8v23.2h-2.9l-1-4.2c-0.4,1.3-1.2,2.5-2.3,3.5C364.8,49.5,363.4,49.8,361.9,49.8z"/>
		<path class="st1" d="M381.1,49.3V14.9c-0.6,0.6-1.3,1.2-2.3,1.5s-1.9,0.6-2.9,0.6v-4.8c1.3-0.2,2.7-0.8,3.8-1.7
			c1.2-1,2.1-2.1,2.9-3.6h5v42.4H381.1L381.1,49.3z"/>
		<path class="st1" d="M396.6,49.3V12.6h-5V6.8h16.1v5.8h-4.8v36.8h-6.3V49.3z"/>
		<path class="st1" d="M409.5,49.3l6.1-42.4h8.4l6.5,42.4h-5.9l-1-7.5h-6.9l-1,7.5H409.5z M422.7,36.6l-2.9-21.3h-0.2l-2.7,21.3
			H422.7z"/>
		<path class="st1" d="M434.8,49.3V6.8h6.5v36.8h8.3v5.6H434.8z"/>
	</g>
	<rect x="8.1" y="15.2" class="st1" width="5.3" height="5.3"/>
	<rect y="30.6" class="st1" width="5" height="5"/>
	<rect x="12.6" y="31.4" class="st1" width="3.9" height="3.9"/>
	<rect x="26" y="26.6" class="st1" width="3.1" height="3.1"/>
	<rect x="22.7" y="38.1" class="st1" width="2.8" height="2.8"/>
	<rect x="23.2" y="47.6" class="st1" width="3.1" height="3.1"/>
	<rect x="22.4" y="8.4" class="st1" width="3.1" height="3.1"/>
	<rect x="16.8" y="23.6" class="st1" width="4.2" height="4.2"/>
	<rect x="5.9" y="38.1" class="st1" width="4.2" height="4.2"/>
	
		<linearGradient id="SVGID_1_" gradientUnits="userSpaceOnUse" x1="84.26" y1="759.6667" x2="120.622" y2="759.6667" gradientTransform="matrix(1 0 0 1 0 -739.9297)">
		<stop  offset="0" style="stop-color:#80A733;stop-opacity:0"/>
		<stop  offset="0.6149" style="stop-color:#80A733"/>
	</linearGradient>
	<path class="st2" d="M101.9,15.7c0,0-9,8.9-17.7,8.3l0,0l1.3,2.7c8,1.6,21.5,1.1,21.5,1.1l13.6-1.6l-6.1-14.6L101.9,15.7z"/>
	
		<linearGradient id="SVGID_2_" gradientUnits="userSpaceOnUse" x1="84.259" y1="755.2492" x2="120.359" y2="755.2492" gradientTransform="matrix(1 0 0 1 0 -739.9297)">
		<stop  offset="0" style="stop-color:#BDD34E;stop-opacity:0"/>
		<stop  offset="0.6293" style="stop-color:#BDD34E"/>
	</linearGradient>
	<path class="st3" d="M114.6,11.6l5.8-5L107,11c0,0-14,11.7-20.3,11.8L84.3,24l0,0c9.1,0.7,17.7-8.3,17.7-8.3L114.6,11.6z"/>
	<polygon class="st0" points="101.9,15.7 107,27.8 120.6,26.2 114.6,11.6 	"/>
	<polygon class="st4" points="120.6,26.2 125.4,19.6 120.3,6.6 114.6,11.6 	"/>
	<polygon class="st5" points="114.6,11.6 120.3,6.6 107,11 101.9,15.7 	"/>
	<g>
		<polygon class="st1" points="42.7,20.6 50.9,21.5 50.4,12.8 42,12 		"/>
		<polygon class="st1" points="62.6,22.7 62.2,13.9 53.6,13.2 54.2,21.8 		"/>
		<polygon class="st1" points="55.6,46.9 56.1,54.7 64.1,55.7 63.7,47.8 		"/>
		<polygon class="st1" points="66.4,37.3 66.8,45.4 75.2,46.4 74.9,38.2 		"/>
		<polygon class="st1" points="55,35.9 55.4,44 63.6,45 63.2,36.8 		"/>
		<polygon class="st1" points="74.8,35.3 74.5,26.8 65.9,26 66.3,34.4 		"/>
		<polygon class="st1" points="66.9,48.3 67.3,56.1 75.5,57.2 75.2,49.2 		"/>
		<polygon class="st1" points="63.1,34 62.7,25.5 54.3,24.7 54.8,33.1 		"/>
		<polygon class="st1" points="44.4,45.5 45,53.2 52.9,54.2 52.4,46.4 		"/>
		<polygon class="st1" points="51.6,32.7 51.1,24.3 42.9,23.5 43.5,31.8 		"/>
		<polygon class="st1" points="38.8,11.9 30.7,11.1 31.4,19.6 39.5,20.4 		"/>
		<polygon class="st1" points="33.5,44.3 34.2,52 41.8,52.9 41.3,45.2 		"/>
		<polygon class="st1" points="43.7,34.7 44.3,42.7 52.2,43.6 51.7,35.5 		"/>
		<polygon class="st1" points="39.7,23.3 31.6,22.5 32.4,30.7 40.3,31.5 		"/>
		<polygon class="st1" points="74.5,23.9 74.2,15.1 65.4,14.3 65.8,23.1 		"/>
		<polygon class="st1" points="40.5,34.4 32.6,33.6 33.3,41.5 41.1,42.4 		"/>
		<polygon class="st1" points="96.8,33.1 96.8,38.2 98.4,36.7 98.4,31.7 		"/>
		<polygon class="st1" points="98.4,8.5 98.4,2.5 96.6,3.6 96.6,9.7 		"/>
		<polygon class="st1" points="91,37.6 91.1,44.2 93.9,41.5 93.9,35.1 		"/>
		<polygon class="st1" points="84.9,42.7 85.1,50.1 88.7,46.7 88.6,39.5 		"/>
		<polygon class="st1" points="78.1,48.6 78.4,56.5 82.6,52.5 82.4,44.9 		"/>
		<g>
			<path class="st1" d="M98.4,12.5l-1.7,1.2v3.1c0.6-0.4,1.1-0.8,1.7-1.1V12.5z"/>
			<path class="st1" d="M91,34.5l2.9-2.5v-2.8c-1-0.1-2-0.1-3-0.2L91,34.5z"/>
			<path class="st1" d="M93.8,15.1l-3,2.1v3.2c1-0.5,1.9-1.1,3-1.8V15.1z"/>
		</g>
		<polygon class="st1" points="93.8,12.2 93.7,4.8 90.6,6.7 90.7,14.3 		"/>
		<polygon class="st1" points="88.6,36.8 88.4,29.3 84.7,32.2 84.9,40 		"/>
		<polygon class="st1" points="84.3,10.3 84.4,18.8 88.3,16.2 88.2,8 		"/>
		<polygon class="st1" points="82.4,42.1 82.2,34.2 77.8,37.6 78.1,45.9 		"/>
		<polygon class="st1" points="81.9,20.6 81.7,11.9 77.2,14.6 77.4,23.7 		"/>
		<polygon class="st1" points="71.4,1.1 73.4,0.2 66.9,0.1 64.8,0.9 		"/>
		<polygon class="st1" points="94.7,1.7 96.7,0.5 88.5,0.4 86.5,1.4 		"/>
		<polygon class="st1" points="65.7,3.7 68.4,2.5 61.4,2.3 58.6,3.4 		"/>
		<polygon class="st1" points="59.1,6.7 62.8,5.1 55.4,4.7 51.6,6.2 		"/>
		<polygon class="st1" points="51.3,10.3 56.1,8.1 48.2,7.6 43.3,9.6 		"/>
		<polygon class="st1" points="82.5,1.4 84.9,0.1 77.4,0.1 75,1.2 		"/>
		<polygon class="st1" points="72,2.6 69,4 76.8,4.3 79.8,2.8 		"/>
		<polygon class="st1" points="66.1,5.4 62.4,7.1 70.5,7.6 74.1,5.7 		"/>
		<polygon class="st1" points="63.2,11.5 67.7,9.1 59.4,8.5 54.9,10.7 		"/>
		<polygon class="st1" points="82.9,3 79.6,4.8 89.1,5.3 92.4,3.3 		"/>
		<polygon class="st1" points="77,6.2 73.3,8.2 82.8,8.9 86.6,6.7 		"/>
		<polygon class="st1" points="70.5,9.7 66.3,12 76,12.9 80.2,10.4 		"/>
		<polygon class="st1" points="57.7,0 55.9,0.6 61.6,0.7 63.3,0 		"/>
		<polygon class="st1" points="52,1.9 49.3,2.8 55.5,3.1 58.1,2 		"/>
		<polygon class="st1" points="45.5,4.2 41.7,5.5 48.4,5.8 52.1,4.4 		"/>
		<polygon class="st1" points="37.5,7 32.2,8.8 39.4,9.4 44.6,7.4 		"/>
		<polygon class="st1" points="82.2,31.5 82,23.2 77.5,26.3 77.8,34.9 		"/>
	</g>
</g>
<g id="logo_headline">
</g>
</svg>
